<svg xmlns="http://www.w3.org/2000/svg" width="1640.128" height="1740.785" viewBox="0 0 1640.128 1740.785">
  <g id="그룹_18" data-name="그룹 18" transform="translate(-187.536 -1715.31)">
    <g id="패스_1" data-name="패스 1" transform="translate(874.191 1714.821) rotate(30)" fill="#fff">
      <path d="M 543.9561157226562 1374.5 C 467.0397644042969 1374.5 395.4347839355469 1363.366333007812 331.1297607421875 1341.408081054688 C 264.6482849121094 1318.706665039062 206.7011108398438 1284.647583007812 158.8981018066406 1240.176879882812 C 146.6674346923828 1228.798828125 134.9577789306641 1216.585327148438 124.0944366455078 1203.875732421875 C 113.0904388427734 1191.001831054688 102.6627731323242 1177.277099609375 93.10127258300781 1163.082885742188 C 83.41027069091797 1148.69677734375 74.35060882568359 1133.44482421875 66.17360687255859 1117.75048828125 C 57.88210678100586 1101.836059570312 50.27610778808594 1085.040405273438 43.56710815429688 1067.830078125 C 36.76127243041992 1050.371459960938 30.69527435302734 1032.01611328125 25.53760719299316 1013.27392578125 C 20.30377388000488 994.2549438476562 15.86394023895264 974.3237915039062 12.34144020080566 954.0341186523438 C 8.766107559204102 933.4392700195312 6.038773536682129 911.9164428710938 4.235440254211426 890.0632934570312 C 2.404773712158203 867.8770751953125 1.4764404296875 844.74658203125 1.4764404296875 821.3142700195312 C 1.4764404296875 774.540283203125 5.132606983184814 726.0136108398438 12.34344005584717 677.0820922851562 C 19.42060661315918 629.0578002929688 29.9307746887207 580.5606079101562 43.58193969726562 532.9376220703125 C 57.1547737121582 485.5874328613281 73.83027648925781 439.1067810058594 93.14494323730469 394.7865905761719 C 112.6124420166016 350.1157836914062 134.7634429931641 307.638427734375 158.9826049804688 268.534423828125 C 183.7056121826172 228.6171112060547 210.6412811279297 192.1296081542969 239.0414428710938 160.0854339599609 C 253.5209350585938 143.7481079101562 268.5666198730469 128.3709411621094 283.7604370117188 114.3814392089844 C 299.2292785644531 100.1386032104492 315.2111206054688 87.00327301025391 331.2621154785156 75.34010314941406 C 347.6324462890625 63.44510650634766 364.4637756347656 52.7989387512207 381.2887878417969 43.69743728637695 C 398.4724426269531 34.40177154541016 416.0667724609375 26.49210548400879 433.5829467773438 20.18777275085449 C 451.492431640625 13.74193859100342 469.7639465332031 8.815105438232422 487.8894348144531 5.544272422790527 C 497.1057739257812 3.881105661392212 506.4687805175781 2.613439083099365 515.7184448242188 1.776272296905518 C 525.0770874023438 0.9294389486312866 534.57763671875 0.49993896484375 543.9561157226562 0.49993896484375 C 553.3347778320312 0.49993896484375 562.8489379882812 0.9294389486312866 572.2342529296875 1.776272296905518 C 581.5104370117188 2.613439083099365 590.9130859375 3.881272315979004 600.1809692382812 5.54443883895874 C 618.4104614257812 8.81577205657959 636.8320922851562 13.74260520935059 654.9342651367188 20.18843841552734 C 672.6434326171875 26.49410629272461 690.4711303710938 34.40427398681641 707.922119140625 43.69894027709961 C 725.0159301757812 52.80344009399414 742.1497802734375 63.4499397277832 758.8479614257812 75.34294128417969 C 775.2302856445312 87.01094055175781 791.5697631835938 100.1467742919922 807.4129638671875 114.3854370117188 C 822.9869384765625 128.3822784423828 838.4315795898438 143.759765625 853.3182983398438 160.0907745361328 C 882.5689697265625 192.1796112060547 910.3717651367188 228.6676025390625 935.9542846679688 268.541259765625 C 961.0866088867188 307.7134399414062 984.1046142578125 350.1907653808594 1004.368591308594 394.7936096191406 C 1024.542724609375 439.1984252929688 1041.974243164062 485.6787719726562 1056.178955078125 532.9437866210938 C 1070.517578125 580.654296875 1081.5625 629.1507568359375 1089.006591796875 677.0859375 C 1096.617431640625 726.0941162109375 1100.476440429688 774.6194458007812 1100.476440429688 821.3142700195312 C 1100.476440429688 844.7289428710938 1099.4951171875 867.8585815429688 1097.559936523438 890.0609130859375 C 1095.656616210938 911.8972778320312 1092.779663085938 933.41943359375 1089.008911132812 954.0296020507812 C 1085.2998046875 974.3035888671875 1080.627319335938 994.234130859375 1075.121459960938 1013.267578125 C 1069.703979492188 1031.9951171875 1063.336059570312 1050.35009765625 1056.194946289062 1067.822631835938 C 1049.166381835938 1085.019653320312 1041.203247070312 1101.815063476562 1032.527099609375 1117.742309570312 C 1023.984130859375 1133.424926757812 1014.525756835938 1148.677124023438 1004.414611816406 1163.074951171875 C 994.4537963867188 1177.259155273438 983.5997924804688 1190.984130859375 972.1539306640625 1203.86865234375 C 960.8712768554688 1216.56982421875 948.7211303710938 1228.783569335938 936.0409545898438 1240.1708984375 C 886.6024169921875 1284.569213867188 827.0302734375 1318.630126953125 758.979248046875 1341.407104492188 C 742.5238037109375 1346.914794921875 725.3858032226562 1351.80908203125 708.0409545898438 1355.9541015625 C 690.838623046875 1360.06494140625 673.001953125 1363.541748046875 655.0264282226562 1366.287963867188 C 637.1734619140625 1369.015380859375 618.7380981445312 1371.090087890625 600.2326049804688 1372.45458984375 C 581.825439453125 1373.811767578125 562.8912963867188 1374.5 543.9561157226562 1374.5 Z" stroke="none"/>
      <path d="M 543.9561157226562 0.9998779296875 C 534.5925903320312 0.9998779296875 525.1072998046875 1.4288330078125 515.763427734375 2.2742919921875 C 506.5284423828125 3.110107421875 497.1802978515625 4.375732421875 487.978271484375 6.0362548828125 C 469.8799438476562 9.30224609375 451.6358032226562 14.2218017578125 433.7522583007812 20.6583251953125 C 416.259765625 26.9541015625 398.6884155273438 34.8533935546875 381.5267944335938 44.1373291015625 C 364.7211303710938 53.228271484375 347.9086303710938 63.8624267578125 331.5560913085938 75.74462890625 C 315.5206298828125 87.396484375 299.5537719726562 100.5194091796875 284.09912109375 114.749267578125 C 268.9177856445312 128.7274169921875 253.8840942382812 144.09228515625 239.4155883789062 160.4171142578125 C 211.034423828125 192.43994140625 184.115966796875 228.9044189453125 159.4077758789062 268.7977294921875 C 135.2011108398438 307.8814697265625 113.061279296875 350.33740234375 93.603271484375 394.9862670898438 C 74.2972412109375 439.2864379882812 57.62939453125 485.7462768554688 44.0626220703125 533.0752563476562 C 30.41748046875 580.6771240234375 19.912109375 629.152587890625 12.838134765625 677.1550903320312 C 5.6307373046875 726.0624389648438 1.9764404296875 774.5645751953125 1.9764404296875 821.3142700195312 C 1.9764404296875 844.73291015625 2.904052734375 867.849609375 4.7337646484375 890.0220947265625 C 6.535888671875 911.8604736328125 9.26123046875 933.368408203125 12.8341064453125 953.9486083984375 C 16.353759765625 974.222412109375 20.7901611328125 994.1378173828125 26.0196533203125 1013.141235351562 C 31.1727294921875 1031.86669921875 37.2332763671875 1050.205810546875 44.032958984375 1067.648681640625 C 50.7354736328125 1084.842041015625 58.333984375 1101.620971679688 66.6170654296875 1117.519409179688 C 74.785400390625 1133.197265625 83.83544921875 1148.432983398438 93.51593017578125 1162.803588867188 C 103.0669555664062 1176.98193359375 113.48291015625 1190.69140625 124.4744262695312 1203.550903320312 C 135.3256225585938 1216.24609375 147.0219116210938 1228.445556640625 159.23876953125 1239.810791015625 C 206.9899291992188 1284.233276367188 264.876953125 1318.256469726562 331.2914428710938 1340.934936523438 C 395.5442504882812 1362.875244140625 467.094970703125 1374 543.9561157226562 1374 C 562.8790893554688 1374 581.80078125 1373.312255859375 600.19580078125 1371.955932617188 C 618.6884765625 1370.592407226562 637.110595703125 1368.519165039062 654.950927734375 1365.793579101562 C 672.9127807617188 1363.049560546875 690.7357788085938 1359.575439453125 707.9248046875 1355.4677734375 C 725.2552490234375 1351.326293945312 742.379150390625 1346.436157226562 758.8206176757812 1340.932983398438 C 826.806396484375 1318.177734375 886.319580078125 1284.151245117188 935.7069091796875 1239.798950195312 C 948.3731079101562 1228.424072265625 960.5099487304688 1216.2236328125 971.7802734375 1203.53662109375 C 983.2132568359375 1190.666137695312 994.055419921875 1176.956298828125 1004.005432128906 1162.78759765625 C 1014.105773925781 1148.405151367188 1023.554077148438 1133.169311523438 1032.088134765625 1117.503173828125 C 1040.755493164062 1101.592041015625 1048.71044921875 1084.8134765625 1055.732055664062 1067.633422851562 C 1062.866577148438 1050.17724609375 1069.228637695312 1031.839233398438 1074.64111328125 1013.128784179688 C 1080.142456054688 994.1112670898438 1084.810913085938 974.1971435546875 1088.51708984375 953.9395751953125 C 1092.284912109375 933.3447265625 1095.159790039062 911.8382568359375 1097.061767578125 890.0174560546875 C 1098.995727539062 867.82958984375 1099.976440429688 844.7144165039062 1099.976440429688 821.3142700195312 C 1099.976440429688 774.6450805664062 1096.119384765625 726.1454467773438 1088.512573242188 677.1627807617188 C 1081.071899414062 629.2501220703125 1070.0322265625 580.7762451171875 1055.700073242188 533.0875854492188 C 1041.501831054688 485.8441162109375 1024.078247070312 439.3849487304688 1003.913452148438 395.0004272460938 C 983.6593017578125 350.41943359375 960.6529541015625 307.9632568359375 935.533447265625 268.811279296875 C 909.9661254882812 228.9610595703125 882.1806030273438 192.49560546875 852.9486083984375 160.4276123046875 C 838.0732421875 144.1087646484375 822.6402587890625 128.7431640625 807.07861328125 114.75732421875 C 791.2496337890625 100.5311279296875 774.9248046875 87.4072265625 758.5577392578125 75.7501220703125 C 741.8773193359375 63.8697509765625 724.761962890625 53.234619140625 707.6871337890625 44.1402587890625 C 690.2578125 34.8570556640625 672.45263671875 26.9569091796875 654.7666015625 20.659423828125 C 636.6900634765625 14.2227783203125 618.2951049804688 9.302978515625 600.0926513671875 6.0364990234375 C 590.839111328125 4.3759765625 581.4511108398438 3.110107421875 572.1892700195312 2.2742919921875 C 562.8187866210938 1.4288330078125 553.3197631835938 0.9998779296875 543.9561157226562 0.9998779296875 M 543.9561157226562 -0.0001220703125 C 847.7129516601562 -0.0001220703125 1100.976440429688 441.6185913085938 1100.976440429688 821.3142700195312 C 1100.976440429688 1201.009887695312 847.7129516601562 1375 543.9561157226562 1375 C 240.1997680664062 1375 0.9764404296875 1201.009887695312 0.9764404296875 821.3142700195312 C 0.9764404296875 441.6185913085938 240.1997680664062 -0.0001220703125 543.9561157226562 -0.0001220703125 Z" stroke="none" fill="#707070"/>
    </g>
    <g id="패스_6" data-name="패스 6" transform="matrix(0.695, 0.719, -0.719, 0.695, 808.468, 2001.43)" fill="#fff">
      <path d="M 173.0000152587891 428.5000305175781 C 160.8127746582031 428.5000305175781 150.1776123046875 427.8624877929688 140.4866638183594 426.5509643554688 C 130.5583648681641 425.2073364257812 121.9397811889648 423.200439453125 114.1383666992188 420.4156188964844 C 98.51425170898438 414.8383178710938 86.58407592773438 406.1513366699219 77.66619110107422 393.8582763671875 C 75.44707489013672 390.7992553710938 73.37166595458984 387.4502563476562 71.49760437011719 383.9042053222656 C 69.63566589355469 380.3810424804688 67.90972137451172 376.5444946289062 66.36766052246094 372.5012512207031 C 63.29872131347656 364.4543151855469 60.87537002563477 355.4959716796875 58.95913314819336 345.1142578125 C 57.10707473754883 335.0804443359375 55.78272247314453 324.0019836425781 54.91030883789062 311.2457275390625 C 54.08372116088867 299.1591491699219 53.68190002441406 285.8163757324219 53.68190002441406 270.4549255371094 C 53.68190002441406 255.1832122802734 54.18889999389648 239.1495056152344 55.18878173828125 222.7991485595703 C 56.25436782836914 205.3747863769531 57.86484146118164 187.8850250244141 59.97542953491211 170.8157348632812 C 62.24713516235352 152.4436187744141 65.09490203857422 134.6077270507812 68.43972015380859 117.8034439086914 C 72.0491943359375 99.66973114013672 76.26754760742188 82.59773254394531 80.9776611328125 67.06173706054688 C 91.55295562744141 32.17985153198242 104.6233139038086 4.772793292999268 119.8256072998047 -14.39814758300781 C 123.9382553100586 -19.58438301086426 128.2613067626953 -24.22285270690918 132.6747741699219 -28.18461799621582 C 137.2291870117188 -32.27302932739258 142.0033111572266 -35.75149917602539 146.8644256591797 -38.52344131469727 C 151.8759613037109 -41.38120651245117 157.1173706054688 -43.56626510620117 162.4431304931641 -45.01797103881836 C 167.9318389892578 -46.5141487121582 173.6623077392578 -47.27273559570312 179.4753112792969 -47.27273559570312 C 185.3188323974609 -47.27273559570312 191.2145385742188 -46.72249984741211 196.9986114501953 -45.63738250732422 C 202.6461944580078 -44.57779312133789 208.3281860351562 -42.98191070556641 213.8867797851562 -40.8940315246582 C 224.6504821777344 -36.85108947753906 235.2865447998047 -30.84891319274902 245.4996032714844 -23.05432510375977 C 255.2961273193359 -15.57761859893799 264.8074951171875 -6.375089168548584 273.7695007324219 4.297616958618164 C 282.4223022460938 14.60202884674072 290.6201782226562 26.34208679199219 298.1355590820312 39.19167709350586 C 327.7936706542969 89.90061950683594 345.5000305175781 155.4364471435547 345.5000305175781 214.5000305175781 C 345.5000305175781 229.0263824462891 344.3197326660156 243.5433807373047 341.991943359375 257.6478576660156 C 339.7234802246094 271.3928527832031 336.3386535644531 284.9126892089844 331.9316101074219 297.8316650390625 C 327.6049499511719 310.5149230957031 322.2499084472656 322.7474975585938 316.0152587890625 334.1897888183594 C 309.8407897949219 345.5216674804688 302.7501220703125 356.1772766113281 294.9403076171875 365.8605651855469 C 287.1320190429688 375.5418395996094 278.5406494140625 384.3309020996094 269.4049072265625 391.9834899902344 C 260.1837158203125 399.7076110839844 250.3265533447266 406.3414306640625 240.1071929931641 411.7007446289062 C 229.7013092041016 417.1578674316406 218.8123168945312 421.3489074707031 207.7425994873047 424.1575012207031 C 196.3854827880859 427.0389709472656 184.6964263916016 428.5000305175781 173.0000152587891 428.5000305175781 Z" stroke="none"/>
      <path d="M 179.4753112792969 -46.77279663085938 C 173.7067260742188 -46.77279663085938 168.0204925537109 -46.02008056640625 162.5746002197266 -44.53561401367188 C 157.2894287109375 -43.094970703125 152.0870819091797 -40.92608642578125 147.1120758056641 -38.08914184570312 C 142.2818298339844 -35.33480834960938 137.5367736816406 -31.87725830078125 133.0087890625 -27.8126220703125 C 128.6161804199219 -23.86956787109375 124.3125610351562 -19.25180053710938 120.2173767089844 -14.08749389648438 C 105.0543212890625 5.033966064453125 92.01312255859375 32.38531494140625 81.45614624023438 67.206787109375 C 76.750732421875 82.72720336914062 72.536376953125 99.783203125 68.93014526367188 117.9010314941406 C 65.58767700195312 134.6933746337891 62.74185180664062 152.51708984375 60.47164916992188 170.8770904541016 C 58.3623046875 187.9362030029297 56.75283813476562 205.4155578613281 55.68783569335938 222.8296813964844 C 54.6885986328125 239.1699066162109 54.181884765625 255.1933288574219 54.181884765625 270.4548950195312 C 54.181884765625 285.8048706054688 54.58331298828125 299.1365051269531 55.40914916992188 311.2116088867188 C 56.28024291992188 323.9486694335938 57.60226440429688 335.0086059570312 59.45083618164062 345.0234985351562 C 61.36148071289062 355.3750915527344 63.77682495117188 364.3048095703125 66.8348388671875 372.3230285644531 C 68.36965942382812 376.3473815917969 70.08718872070312 380.1652526855469 71.93972778320312 383.6705627441406 C 73.80279541015625 387.19580078125 75.8656005859375 390.5246887207031 78.07089233398438 393.5646057128906 C 80.28347778320312 396.6145629882812 82.71435546875 399.4769592285156 85.2960205078125 402.0723876953125 C 87.88137817382812 404.6714477539062 90.70538330078125 407.0906066894531 93.68960571289062 409.2627258300781 C 96.67312622070312 411.4342651367188 99.91741943359375 413.4321594238281 103.3324890136719 415.2008666992188 C 106.7399597167969 416.9656066894531 110.43212890625 418.5616760253906 114.3064270019531 419.9446716308594 C 122.0747375488281 422.7176818847656 130.6602478027344 424.7164916992188 140.5537109375 426.0554504394531 C 150.2221984863281 427.3639221191406 160.8354339599609 427.9999694824219 173.0000152587891 427.9999694824219 C 184.6549530029297 427.9999694824219 196.3027191162109 426.5440979003906 207.6195983886719 423.6727905273438 C 218.6514282226562 420.8738403320312 229.5037231445312 416.6968383789062 239.8749542236328 411.2579040527344 C 250.0627288818359 405.9151611328125 259.8900146484375 399.3013305664062 269.0838623046875 391.6001586914062 C 278.1947631835938 383.9683837890625 286.76318359375 375.2026672363281 294.5510864257812 365.5465698242188 C 302.3421325683594 355.8865661621094 309.416015625 345.256103515625 315.5762023925781 333.9505004882812 C 321.7973022460938 322.5330810546875 327.1408386230469 310.3265991210938 331.4583740234375 297.6701965332031 C 335.8565979003906 284.7771606445312 339.234619140625 271.2842712402344 341.4985961914062 257.5663757324219 C 343.8219604492188 243.4887390136719 345 228.9991455078125 345 214.4999694824219 C 345 155.5212707519531 327.3192443847656 90.07980346679688 297.7038879394531 39.44403076171875 C 290.2028503417969 26.61880493164062 282.0213012695312 14.9019775390625 273.3865966796875 4.61907958984375 C 264.4481811523438 -6.0255126953125 254.9636077880859 -15.20245361328125 245.1962585449219 -22.65692138671875 C 235.0220794677734 -30.42184448242188 224.4288940429688 -36.40020751953125 213.7109527587891 -40.426025390625 C 208.1794891357422 -42.50372314453125 202.5256042480469 -44.091796875 196.9064331054688 -45.14596557617188 C 191.1526641845703 -46.22543334960938 185.2880096435547 -46.77279663085938 179.4753112792969 -46.77279663085938 M 179.4753112792969 -47.77279663085938 C 275.0205383300781 -47.77279663085938 346 96.034912109375 346 214.4999694824219 C 346 332.9650268554688 268.5452575683594 428.9999694824219 173.0000152587891 428.9999694824219 C 77.4547119140625 428.9999694824219 53.181884765625 388.9199829101562 53.181884765625 270.4548950195312 C 53.181884765625 151.9898529052734 83.93014526367188 -47.77279663085938 179.4753112792969 -47.77279663085938 Z" stroke="none" fill="#707070"/>
    </g>
    <g id="패스_8" data-name="패스 8" transform="matrix(0.695, 0.719, -0.719, 0.695, 1094.968, 2753.632)" fill="#fff">
      <path d="M 173.0000305175781 428.5000305175781 C 160.8127899169922 428.5000305175781 150.1776123046875 427.8624877929688 140.4866638183594 426.5509643554688 C 130.5583801269531 425.2073364257812 121.9397888183594 423.200439453125 114.1383743286133 420.4156188964844 C 98.51425933837891 414.8383178710938 86.58408355712891 406.1513366699219 77.66619873046875 393.8582763671875 C 75.44708251953125 390.7992553710938 73.37167358398438 387.4502563476562 71.49761199951172 383.9042053222656 C 69.63567352294922 380.3810424804688 67.90972900390625 376.5444946289062 66.36766815185547 372.5012512207031 C 63.29872894287109 364.4543151855469 60.8753776550293 355.4959716796875 58.95914077758789 345.1142578125 C 57.10708236694336 335.0804443359375 55.78273010253906 324.0019836425781 54.91031646728516 311.2457275390625 C 54.0837287902832 299.1591491699219 53.68190765380859 285.8163757324219 53.68190765380859 270.4549255371094 C 53.68190765380859 255.1832122802734 54.18890762329102 239.1495056152344 55.18878936767578 222.7991485595703 C 56.25437545776367 205.3747863769531 57.86484527587891 187.8850250244141 59.97543716430664 170.8157348632812 C 62.24714279174805 152.4436187744141 65.09490966796875 134.6077270507812 68.43972778320312 117.8034439086914 C 72.04920196533203 99.66973114013672 76.26755523681641 82.59773254394531 80.97766876220703 67.06173706054688 C 91.55296325683594 32.17985153198242 104.6233139038086 4.772793292999268 119.8256149291992 -14.39814758300781 C 123.9382553100586 -19.58438301086426 128.2613220214844 -24.22285270690918 132.6747894287109 -28.18461799621582 C 137.2292022705078 -32.27302932739258 142.0033111572266 -35.75149917602539 146.8644409179688 -38.52344131469727 C 151.8759613037109 -41.38120651245117 157.1173706054688 -43.56626510620117 162.4431457519531 -45.01797103881836 C 167.9318542480469 -46.5141487121582 173.6623229980469 -47.27273559570312 179.4753112792969 -47.27273559570312 C 191.2986145019531 -47.27273559570312 203.3903198242188 -46.11614608764648 215.4144897460938 -43.83509063720703 C 227.3750762939453 -41.56608963012695 239.3072662353516 -38.1775016784668 250.8796081542969 -33.76344299316406 C 262.5296020507812 -29.31979560852051 273.8534240722656 -23.82173538208008 284.5365600585938 -17.42214775085449 C 295.4139099121094 -10.90614795684814 305.680908203125 -3.422030210494995 315.0524291992188 4.822381496429443 C 324.6867980957031 13.29796981811523 333.4493103027344 22.64461708068848 341.0966186523438 32.60255813598633 C 349.0170288085938 42.91620635986328 355.8284301757812 54.00202941894531 361.341552734375 65.55208587646484 C 373.1458435058594 90.28208923339844 379.1310729980469 117.1856155395508 379.1310729980469 145.5154418945312 C 379.1310729980469 159.9546813964844 377.4657287597656 175.4629058837891 374.1812438964844 191.6092071533203 C 371.015380859375 207.1728515625 366.3491516113281 223.3238525390625 360.3121948242188 239.6136169433594 C 348.5121459960938 271.4542541503906 331.715087890625 303.1911010742188 311.7370300292969 331.3931579589844 C 301.7274475097656 345.5231018066406 291.0511474609375 358.5779724121094 280.0046691894531 370.1950988769531 C 268.6653747558594 382.1202087402344 256.9891967773438 392.4710998535156 245.3004302978516 400.9601440429688 C 233.1534881591797 409.7820434570312 220.9837341308594 416.5957336425781 209.1291961669922 421.2120361328125 C 196.7106781005859 426.0479736328125 184.5550231933594 428.5000305175781 173.0000305175781 428.5000305175781 Z" stroke="none"/>
      <path d="M 179.4753112792969 -46.77279663085938 C 173.7067260742188 -46.77279663085938 168.0205078125 -46.02008056640625 162.5746154785156 -44.53561401367188 C 157.2894287109375 -43.094970703125 152.0870971679688 -40.92608642578125 147.1120910644531 -38.08914184570312 C 142.2818603515625 -35.33480834960938 137.5367736816406 -31.87725830078125 133.0087280273438 -27.8126220703125 C 128.6162109375 -23.86956787109375 124.3125610351562 -19.25180053710938 120.2173767089844 -14.08749389648438 C 105.0543212890625 5.033966064453125 92.01315307617188 32.38531494140625 81.45614624023438 67.206787109375 C 76.750732421875 82.72720336914062 72.536376953125 99.783203125 68.93008422851562 117.9010314941406 C 65.58767700195312 134.6933746337891 62.74185180664062 152.51708984375 60.4716796875 170.8770904541016 C 58.3623046875 187.9362030029297 56.75283813476562 205.4155578613281 55.68783569335938 222.8296813964844 C 54.6885986328125 239.1699066162109 54.18191528320312 255.1933288574219 54.18191528320312 270.4548950195312 C 54.18191528320312 285.8048706054688 54.58331298828125 299.1365051269531 55.40914916992188 311.2116088867188 C 56.2802734375 323.9486694335938 57.60226440429688 335.0086059570312 59.45083618164062 345.0234985351562 C 61.36148071289062 355.3750915527344 63.77685546875 364.3048095703125 66.8348388671875 372.3230285644531 C 68.36965942382812 376.3473815917969 70.08718872070312 380.1652526855469 71.93972778320312 383.6705627441406 C 73.80279541015625 387.19580078125 75.8656005859375 390.5246887207031 78.07089233398438 393.5646057128906 C 80.28350830078125 396.6145629882812 82.71438598632812 399.4769592285156 85.2960205078125 402.0723876953125 C 87.88137817382812 404.6714477539062 90.70538330078125 407.0906066894531 93.68960571289062 409.2627258300781 C 96.67312622070312 411.4342651367188 99.91744995117188 413.4321594238281 103.3324890136719 415.2008666992188 C 106.7399597167969 416.9656066894531 110.43212890625 418.5616760253906 114.3064270019531 419.9446716308594 C 122.0747375488281 422.7176818847656 130.6602478027344 424.7164916992188 140.5537414550781 426.0554504394531 C 150.2221984863281 427.3639221191406 160.83544921875 427.9999694824219 173.0000305175781 427.9999694824219 C 184.4927368164062 427.9999694824219 196.5872650146484 425.5593872070312 208.9477844238281 420.74609375 C 220.7623748779297 416.1453247070312 232.8943786621094 409.3522033691406 245.0066070556641 400.5555419921875 C 256.6708374023438 392.0842590332031 268.323974609375 381.7536315917969 279.6423950195312 369.8504943847656 C 290.6723022460938 358.250732421875 301.333251953125 345.2145080566406 311.3290405273438 331.1040344238281 C 331.2822570800781 302.9371337890625 348.0582580566406 271.2401428222656 359.8433837890625 239.4397888183594 C 365.8713684082031 223.1740875244141 370.5304870605469 207.0480346679688 373.6913146972656 191.5095062255859 C 376.9690856933594 175.3959045410156 378.6310729980469 159.9212646484375 378.6310729980469 145.515380859375 C 378.6310729980469 117.2606811523438 372.6622619628906 90.42962646484375 360.8903198242188 65.76742553710938 C 355.3922119140625 54.24884033203125 348.5991821289062 43.19302368164062 340.7000122070312 32.90704345703125 C 333.072509765625 22.9747314453125 324.332275390625 13.6519775390625 314.7221374511719 5.197723388671875 C 305.3733215332031 -3.02667236328125 295.1309814453125 -10.4927978515625 284.2796020507812 -16.99325561523438 C 273.6215515136719 -23.37789916992188 262.32421875 -28.863037109375 250.7014312744141 -33.29632568359375 C 239.1565551757812 -37.69985961914062 227.2529602050781 -41.08038330078125 215.3213195800781 -43.34390258789062 C 203.3277893066406 -45.619140625 191.2674407958984 -46.77279663085938 179.4753112792969 -46.77279663085938 M 179.4753112792969 -47.77279663085938 C 275.0205688476562 -47.77279663085938 379.6310729980469 27.05032348632812 379.6310729980469 145.515380859375 C 379.6310729980469 263.9804992675781 268.5452575683594 428.9999694824219 173.0000305175781 428.9999694824219 C 77.45474243164062 428.9999694824219 53.18191528320312 388.9199829101562 53.18191528320312 270.4548950195312 C 53.18191528320312 151.9898529052734 83.93008422851562 -47.77279663085938 179.4753112792969 -47.77279663085938 Z" stroke="none" fill="#707070"/>
    </g>
    <g id="패스_7" data-name="패스 7" transform="matrix(-0.899, -0.438, 0.438, -0.899, 1291.925, 2486.259)" fill="#fff">
      <path d="M 172.9999847412109 428.5 C 160.8127593994141 428.5 150.1775817871094 427.8624572753906 140.4866943359375 426.5509338378906 C 130.5583648681641 425.2073364257812 121.9397583007812 423.2003784179688 114.1383666992188 420.4155578613281 C 98.51425170898438 414.8382873535156 86.58414459228516 406.1513366699219 77.66619873046875 393.8582153320312 C 75.44709014892578 390.7992248535156 73.37169647216797 387.4502258300781 71.49764251708984 383.9041748046875 C 69.63569641113281 380.3810119628906 67.90969848632812 376.5444946289062 66.36769866943359 372.501220703125 C 63.29875564575195 364.454345703125 60.8753662109375 355.4959411621094 58.95914459228516 345.1142883300781 C 57.10708999633789 335.0804443359375 55.78275680541992 324.001953125 54.91036605834961 311.2456665039062 C 54.08375549316406 299.1591186523438 53.68192291259766 285.8163452148438 53.68192291259766 270.4548950195312 C 53.68192291259766 256.0558471679688 55.14786529541016 242.3017272949219 58.03908920288086 229.5746154785156 C 60.80553436279297 217.3966217041016 64.94108581542969 205.8744506835938 70.330810546875 195.3282775878906 C 75.48436737060547 185.2442321777344 81.89920043945312 175.8269958496094 89.39698028564453 167.3382263183594 C 96.56525421142578 159.2226104736328 104.8729248046875 151.7851715087891 114.0892562866211 145.2325592041016 C 131.4356994628906 132.8996124267578 152.1834716796875 123.4831695556641 175.7561492919922 117.2448883056641 C 186.7697601318359 114.3302841186523 198.4310302734375 112.1147842407227 210.4159698486328 110.6600570678711 C 221.9835357666016 109.2559509277344 233.9813079833984 108.5440063476562 246.0760345458984 108.5440063476562 C 257.6838073730469 108.5440063476562 267.6524658203125 108.9560012817383 276.5515747070312 109.8035049438477 C 285.8317565917969 110.6872787475586 293.9388732910156 112.0411148071289 301.3360900878906 113.9423370361328 C 316.1334228515625 117.7454452514648 328.2384338378906 123.8083953857422 339.4313049316406 133.0227203369141 C 344.8600463867188 137.4918365478516 350.1393737792969 142.7472839355469 355.5710754394531 149.0894470214844 C 360.6253051757812 154.9908294677734 365.8779296875 161.9184417724609 371.6290893554688 170.2682800292969 C 382.6179809570312 186.2224426269531 394.2631530761719 205.6138305664062 409.0065307617188 230.1642303466797 C 412.4887084960938 235.9626159667969 416.08935546875 241.95849609375 419.8857116699219 248.2483367919922 C 423.9948120117188 255.0564422607422 427.141357421875 261.9058227539062 429.2379760742188 268.6061096191406 C 431.259521484375 275.0666198730469 432.3573608398438 281.5558471679688 432.5008544921875 287.8936157226562 C 432.6391906738281 294.001953125 431.8947448730469 300.1267700195312 430.2882690429688 306.0980529785156 C 428.739990234375 311.8525695800781 426.3522644042969 317.6097106933594 423.1912536621094 323.209716796875 C 414.3507690429688 338.8714599609375 399.2782592773438 353.8255004882812 378.3924865722656 367.6566162109375 C 368.8959655761719 373.9454345703125 358.1549682617188 380.0159606933594 346.4679260253906 385.6994018554688 C 335.4483032226562 391.058349609375 323.483154296875 396.1254577636719 310.9049072265625 400.7600708007812 C 287.5686340332031 409.3586120605469 262.0156860351562 416.4935607910156 237.0086517333984 421.3935546875 C 225.1814727783203 423.7109985351562 213.6546478271484 425.4971618652344 202.7482604980469 426.7024536132812 C 191.9549713134766 427.8952331542969 181.9461975097656 428.5 172.9999847412109 428.5 Z" stroke="none"/>
      <path d="M 246.0760192871094 109.0440063476562 C 234.0013732910156 109.0440063476562 222.0238647460938 109.7547302246094 210.4761962890625 111.1564025878906 C 198.5140380859375 112.6083984375 186.8755187988281 114.8194885253906 175.884033203125 117.728271484375 C 152.36962890625 123.9511108398438 131.6763000488281 133.3420104980469 114.3789672851562 145.6400451660156 C 105.1938171386719 152.1705627441406 96.91470336914062 159.5822143554688 89.77175903320312 167.6692199707031 C 82.3016357421875 176.1266174316406 75.9105224609375 185.5090026855469 70.77603149414062 195.5558471679688 C 65.40521240234375 206.0650024414062 61.283935546875 217.5478515625 58.52664184570312 229.6853942871094 C 55.64370727539062 242.3761596679688 54.18191528320312 256.093017578125 54.18191528320312 270.4548950195312 C 54.18191528320312 285.8048400878906 54.5833740234375 299.1365051269531 55.40921020507812 311.2115478515625 C 56.28024291992188 323.9486083984375 57.60232543945312 335.0086059570312 59.4508056640625 345.0234985351562 C 61.36154174804688 355.3750610351562 63.77685546875 364.3048400878906 66.83486938476562 372.3230590820312 C 68.36968994140625 376.347412109375 70.08718872070312 380.165283203125 71.939697265625 383.6705627441406 C 73.80276489257812 387.1958312988281 75.8656005859375 390.524658203125 78.0709228515625 393.5646362304688 C 80.28347778320312 396.6145629882812 82.71435546875 399.4769897460938 85.2960205078125 402.0723876953125 C 87.88137817382812 404.6714477539062 90.70541381835938 407.0906677246094 93.68963623046875 409.2627258300781 C 96.67315673828125 411.4342651367188 99.91741943359375 413.4321594238281 103.3324890136719 415.2008361816406 C 106.739990234375 416.9656066894531 110.43212890625 418.5616760253906 114.3064880371094 419.9446716308594 C 122.07470703125 422.7176513671875 130.6602478027344 424.716552734375 140.5537414550781 426.0554504394531 C 150.2221374511719 427.3639526367188 160.8354187011719 428 172.9999694824219 428 C 181.9279174804688 428 191.918212890625 427.396240234375 202.693359375 426.2055053710938 C 213.5859680175781 425.001708984375 225.0989074707031 423.2176513671875 236.9124755859375 420.9028930664062 C 261.8938598632812 416.0079345703125 287.4202575683594 408.8804321289062 310.7320556640625 400.2908935546875 C 323.2947387695312 395.6619873046875 335.2444763183594 390.6014404296875 346.249267578125 385.2497863769531 C 357.9165344238281 379.5758972167969 368.63818359375 373.5164489746094 378.1164245605469 367.23974609375 C 398.9356384277344 353.4527282714844 413.9545288085938 338.55615234375 422.7557983398438 322.9639282226562 C 425.8962097167969 317.4004516601562 428.2680358886719 311.6822204589844 429.8053588867188 305.9681701660156 C 431.3995361328125 300.04296875 432.1382446289062 293.965576171875 432.0009765625 287.9049072265625 C 431.8584594726562 281.614013671875 430.768310546875 275.1712341308594 428.7607421875 268.7554626464844 C 426.6760864257812 262.0932922363281 423.5460205078125 255.2806091308594 419.45751953125 248.5066833496094 C 415.6610412597656 242.2164611816406 412.0601806640625 236.2203979492188 408.5779418945312 230.4217834472656 C 393.8390502929688 205.8788452148438 382.1973876953125 186.4932861328125 371.2173461914062 170.552001953125 C 365.4761962890625 162.2167358398438 360.2340393066406 155.3026733398438 355.1913452148438 149.4147338867188 C 349.7786865234375 143.0948486328125 344.5196533203125 137.8592224121094 339.113525390625 133.4087219238281 C 327.9791870117188 124.2425537109375 315.9356079101562 118.2108459472656 301.2116394042969 114.4265441894531 C 293.8399658203125 112.5319519042969 285.7580871582031 111.1825561523438 276.5042114257812 110.3012390136719 C 267.6209716796875 109.4552307128906 257.6678771972656 109.0440063476562 246.0760192871094 109.0440063476562 M 246.0760192871094 108.0440063476562 C 341.6212768554688 108.0440063476562 352.759765625 136.0640563964844 420.3136901855469 247.9899597167969 C 487.8677062988281 359.9157104492188 268.5452575683594 429 172.9999694824219 429 C 77.45474243164062 429 53.18191528320312 388.9199523925781 53.18191528320312 270.4548950195312 C 53.18191528320312 151.9898376464844 150.5308532714844 108.0440063476562 246.0760192871094 108.0440063476562 Z" stroke="none" fill="#707070"/>
    </g>
    <g id="패스_9" data-name="패스 9" transform="translate(976 2294)" fill="#fff">
      <path d="M 49.87553787231445 143.5696105957031 C 42.22061157226562 143.5696105957031 32.20030975341797 143.4658355712891 22.58058547973633 142.6566314697266 C 12.4687614440918 141.8060302734375 4.196036338806152 140.3199768066406 -2.710263967514038 138.1136016845703 C -6.61638879776001 136.8656768798828 -10.11393928527832 135.3643035888672 -13.10578918457031 133.6511535644531 C -16.30478858947754 131.8194122314453 -19.03286361694336 129.6844329833984 -21.2142391204834 127.3055572509766 C -23.52731323242188 124.7830581665039 -25.3012638092041 121.9038619995117 -26.48676300048828 118.747932434082 C -27.74123954772949 115.4083557128906 -28.3773136138916 111.6524353027344 -28.3773136138916 107.5844879150391 C -28.3773136138916 102.7993316650391 -27.50883865356445 97.45078277587891 -25.7960147857666 91.68738555908203 C -24.15918922424316 86.17975616455078 -21.75648880004883 80.30490875244141 -18.6546630859375 74.22600555419922 C -12.66283893585205 62.48338317871094 -4.289514064788818 50.37550735473633 5.560111045837402 39.21136093139648 C 15.48061084747314 27.96688461303711 26.24213600158691 18.43190956115723 36.6812629699707 11.6372594833374 C 42.14136123657227 8.083359718322754 47.4406623840332 5.332109451293945 52.43193435668945 3.459959268569946 C 57.66831207275391 1.495884299278259 62.56973648071289 0.5000092387199402 67.00000762939453 0.5000092387199402 C 76.93211364746094 0.5000092387199402 87.82428741455078 1.433659195899963 98.49900817871094 3.200034141540527 C 104.365234375 4.170709133148193 110.0761108398438 5.383084297180176 115.473014831543 6.803434371948242 C 121.297607421875 8.336359024047852 126.7892837524414 10.12125968933105 131.7954864501953 12.1085844039917 C 143.0440368652344 16.57390975952148 151.8886871337891 22.05055999755859 158.0837554931641 28.38638496398926 C 161.4899291992188 31.8699836730957 164.1118927001953 35.6479606628418 165.8767547607422 39.61543273925781 C 167.7551879882812 43.83815765380859 168.7076416015625 48.37875747680664 168.7076416015625 53.111083984375 C 168.7076416015625 57.87175750732422 167.7504425048828 62.97038269042969 165.8626403808594 68.26531219482422 C 164.0716400146484 73.28878784179688 161.4333038330078 78.52120971679688 158.0209350585938 83.81730651855469 C 151.6028900146484 93.77835845947266 142.4862060546875 103.899284362793 131.6565399169922 113.0859375 C 121.1751861572266 121.9771118164062 109.6631088256836 129.533935546875 98.36483764648438 134.939453125 C 86.65933990478516 140.5398101806641 75.81353759765625 143.5000152587891 67.00000762939453 143.5000152587891 C 64.41085815429688 143.5000152587891 61.75226211547852 143.5161590576172 58.93758773803711 143.5332794189453 C 55.99973678588867 143.5511322021484 52.96186065673828 143.5696105957031 49.87553787231445 143.5696105957031 Z" stroke="none"/>
      <path d="M 67.00000762939453 1.000015258789062 C 62.62991333007812 1.000015258789062 57.78755950927734 1.985153198242188 52.60753631591797 3.928115844726562 C 47.65026092529297 5.787506103515625 42.38365936279297 8.522232055664062 36.95401000976562 12.05630493164062 C 26.55223846435547 18.82662963867188 15.82605743408203 28.33108520507812 5.93505859375 39.54213714599609 C -3.88726806640625 50.67533111572266 -12.23623657226562 62.74738311767578 -18.20932006835938 74.45326232910156 C -21.29728698730469 80.50503540039062 -23.68856811523438 86.35136413574219 -25.31671142578125 91.82981109619141 C -27.01580810546875 97.54693603515625 -27.8773193359375 102.8475799560547 -27.8773193359375 107.5844573974609 C -27.8773193359375 111.5921630859375 -27.25198364257812 115.288932800293 -26.01869201660156 118.5720825195312 C -24.85578918457031 121.6678314208984 -23.1153564453125 124.4925079345703 -20.84571838378906 126.9676361083984 C -18.69921875 129.3084564208984 -16.01153564453125 131.4111328125 -12.85734558105469 133.2172546386719 C -9.895965576171875 134.9129638671875 -6.4307861328125 136.4000854492188 -2.558090209960938 137.6373138427734 C 4.311965942382812 139.8321380615234 12.548583984375 141.3109893798828 22.62251281738281 142.1583862304688 C 32.22368621826172 142.9660339355469 42.23040771484375 143.0696105957031 49.87556457519531 143.0696105957031 C 52.96035766601562 143.0696105957031 55.99745941162109 143.0511322021484 58.93456268310547 143.0332794189453 C 61.75000762939453 143.0161895751953 64.40933990478516 143.0000152587891 67.00000762939453 143.0000152587891 C 75.73933410644531 143.0000152587891 86.51048278808594 140.0567626953125 98.14903259277344 134.4884338378906 C 109.4091644287109 129.1011657714844 120.8840103149414 121.5684585571289 131.3330841064453 112.7046585083008 C 142.1257171630859 103.5494079589844 151.2088928222656 93.46668243408203 157.6006317138672 83.5465087890625 C 160.9922332763672 78.28260803222656 163.6135406494141 73.08478546142578 165.3916931152344 68.097412109375 C 167.2602081298828 62.85650634765625 168.2076416015625 57.81438446044922 168.2076416015625 53.111083984375 C 168.2076416015625 48.44921112060547 167.2697143554688 43.97698211669922 165.4199371337891 39.81863403320312 C 163.6792907714844 35.90566253662109 161.0907592773438 32.17691040039062 157.7262420654297 28.7359619140625 C 151.5804595947266 22.45053100585938 142.7940368652344 17.01263427734375 131.6110076904297 12.57330322265625 C 126.6234130859375 10.5933837890625 121.1509857177734 8.814804077148438 115.3457336425781 7.2869873046875 C 109.9638366699219 5.870559692382812 104.268310546875 4.661483764648438 98.4173583984375 3.693313598632812 C 87.76918792724609 1.93133544921875 76.90523529052734 1.000015258789062 67.00000762939453 1.000015258789062 M 67.00000762939453 1.52587890625e-05 C 104.0030822753906 1.52587890625e-05 169.2076416015625 13.34658813476562 169.2076416015625 53.111083984375 C 169.2076416015625 92.87557983398438 104.0030822753906 144.0000152587891 67.00000762939453 144.0000152587891 C 61.66771697998047 144.0000152587891 55.87457275390625 144.0696105957031 49.87555694580078 144.0696105957031 C 14.24479675292969 144.0696105957031 -28.8773193359375 141.6187286376953 -28.8773193359375 107.5844573974609 C -28.8773193359375 67.81998443603516 29.99691009521484 1.52587890625e-05 67.00000762939453 1.52587890625e-05 Z" stroke="none" fill="#707070"/>
    </g>
    <g id="패스_11" data-name="패스 11" transform="translate(660.835 2969.678)" fill="#fff">
      <path d="M 169.2076416015625 215.8811187744141 C 159.7662353515625 215.8811187744141 144.7357635498047 214.0570220947266 127.9701080322266 210.8765716552734 C 119.0388107299805 209.1822662353516 109.9600067138672 207.17333984375 100.9859313964844 204.9055938720703 C 91.28463745117188 202.4540710449219 81.93048858642578 199.7542419433594 73.18341064453125 196.8811187744141 C 63.6521110534668 193.7504119873047 54.88573455810547 190.4261474609375 47.12778472900391 187.0005950927734 C 38.68068313598633 183.2707672119141 31.36708450317383 179.3915100097656 25.39013481140137 175.4705963134766 C 11.92620944976807 166.6381683349609 5.099409580230713 157.5665588378906 5.099409580230713 148.5078125 C 5.099409580230713 138.7630615234375 6.755509853363037 128.0304718017578 9.88868522644043 117.4703140258789 C 13.0432596206665 106.8380889892578 17.64255905151367 96.56778717041016 23.18938446044922 87.76976776123047 C 26.0727596282959 83.19631195068359 29.21168518066406 79.01426696777344 32.51893615722656 75.33973693847656 C 35.958984375 71.51769256591797 39.60385894775391 68.22081756591797 43.35238647460938 65.54071807861328 C 51.44411087036133 59.75526428222656 59.96748352050781 56.8217887878418 68.68573760986328 56.8217887878418 C 78.76175689697266 56.8217887878418 89.5650634765625 57.65591430664062 99.92768859863281 59.23401641845703 C 112.1515121459961 61.09551620483398 123.1589126586914 63.87944030761719 132.6441650390625 67.50843811035156 C 143.6637420654297 71.72444152832031 152.3115539550781 76.98666381835938 158.3474578857422 83.14891815185547 C 161.6707153320312 86.54174041748047 164.2279815673828 90.24844360351562 165.9482421875 94.16603851318359 C 167.7792358398438 98.33589172363281 168.7076416015625 102.8504867553711 168.7076416015625 107.5844650268555 C 168.7076416015625 121.3155136108398 173.09130859375 138.4877624511719 177.3306579589844 155.0946350097656 C 180.4044342041016 167.1356964111328 183.3077545166016 178.5089416503906 184.5458526611328 188.3334655761719 C 185.2076110839844 193.5846405029297 185.3285522460938 197.8971862792969 184.9156646728516 201.5175476074219 C 184.4595642089844 205.5167083740234 183.3685150146484 208.579833984375 181.5802154541016 210.8820190429688 C 180.3212127685547 212.5027923583984 178.6863403320312 213.7425384521484 176.7210388183594 214.5668182373047 C 174.6416778564453 215.4389190673828 172.1138153076172 215.8811187744141 169.2076416015625 215.8811187744141 Z" stroke="none"/>
      <path d="M 68.68571472167969 57.32177734375 C 60.07388305664062 57.32177734375 51.64834594726562 60.22386169433594 43.64315795898438 65.94743347167969 C 39.92408752441406 68.60652160644531 36.306396484375 71.87907409667969 32.89056396484375 75.67422485351562 C 29.60224914550781 79.32769775390625 26.4805908203125 83.4869384765625 23.61231994628906 88.03640747070312 C 18.08955383300781 96.79627990722656 13.50975036621094 107.0235443115234 10.36802673339844 117.612548828125 C 7.248382568359375 128.1271209716797 5.599395751953125 138.810546875 5.599395751953125 148.5078125 C 5.599395751953125 157.3874206542969 12.35025024414062 166.3183288574219 25.66439819335938 175.0525207519531 C 31.61842346191406 178.9584045410156 38.90771484375 182.8244323730469 47.32974243164062 186.5431823730469 C 55.07273864746094 189.9621276855469 63.82366943359375 193.2804565429688 73.33943176269531 196.4060668945312 C 82.07550048828125 199.2755737304688 91.41835021972656 201.9721221923828 101.1084518432617 204.4208374023438 C 110.0728530883789 206.6861267089844 119.1417694091797 208.6928863525391 128.0632934570312 210.3853149414062 C 144.7995910644531 213.5602111816406 159.7961120605469 215.381103515625 169.2076416015625 215.381103515625 C 172.0470581054688 215.381103515625 174.5098571777344 214.9519958496094 176.5276336669922 214.105712890625 C 178.439208984375 213.3039703369141 179.9627685546875 212.1491546630859 181.1853485107422 210.5752868652344 C 182.915771484375 208.3476257324219 183.9734497070312 205.3662719726562 184.4188690185547 201.4608612060547 C 184.8272094726562 197.8806457519531 184.7064819335938 193.6071014404297 184.0497741699219 188.3959655761719 C 182.8155822753906 178.6023864746094 179.916015625 167.2438049316406 176.84619140625 155.2183074951172 C 172.5992126464844 138.5815124511719 168.2076416015625 121.3783416748047 168.2076416015625 107.58447265625 C 168.2076416015625 102.9201202392578 167.2934265136719 98.47314453125 165.4904327392578 94.3670654296875 C 163.7945251464844 90.50494384765625 161.2711181640625 86.84832763671875 157.9902496337891 83.49874877929688 C 152.0051116943359 77.38833618164062 143.4173583984375 72.16551208496094 132.4655151367188 67.97541809082031 C 123.0135879516602 64.35917663574219 112.0409545898438 61.58444213867188 99.85240173339844 59.72830200195312 C 89.51424407958984 58.15394592285156 78.73698425292969 57.32177734375 68.68571472167969 57.32177734375 M 68.68571472167969 56.32177734375 C 105.6888198852539 56.32177734375 169.2076416015625 67.81996154785156 169.2076416015625 107.58447265625 C 169.2076416015625 147.3489685058594 206.2107238769531 216.381103515625 169.2076416015625 216.381103515625 C 132.2045593261719 216.381103515625 4.599395751953125 188.2723083496094 4.599395751953125 148.5078125 C 4.599395751953125 108.7433013916016 31.68263244628906 56.32177734375 68.68571472167969 56.32177734375 Z" stroke="none" fill="#707070"/>
    </g>
    <g id="패스_10" data-name="패스 10" transform="translate(1110 2418)" fill="#fff">
      <path d="M 13.94268035888672 148.25244140625 C 1.618240118026733 148.25244140625 -6.441239833831787 138.7679748535156 -10.69629955291748 119.257080078125 C -12.38833999633789 111.4984588623047 -13.5008602142334 102.0959625244141 -14.09743976593018 90.51226043701172 C -14.6418399810791 79.94122314453125 -14.68743991851807 68.87022399902344 -14.68743991851807 59.32300186157227 C -14.68743991851807 36.24666213989258 -2.544099807739258 22.3394603729248 7.642899990081787 14.73630046844482 C 10.78732013702393 12.38944053649902 14.23945999145508 10.27154064178467 17.90344047546387 8.441460609436035 C 21.3994197845459 6.6952805519104 25.1077995300293 5.200600624084473 28.92558097839355 3.998940706253052 C 36.19802093505859 1.709920644760132 43.83124160766602 0.5000007152557373 51 0.5000007152557373 C 57.43278121948242 0.5000007152557373 62.26367950439453 2.235520601272583 65.76872253417969 5.805740833282471 C 69.73062133789062 9.841320991516113 72.06374359130859 16.24334144592285 73.11119842529297 25.95328140258789 C 74.06681823730469 34.8117790222168 73.86563873291016 45.73028182983398 73.65265655517578 57.28985977172852 C 73.55335998535156 62.67924118041992 73.45068359375 68.25209808349609 73.45068359375 74 C 73.45068359375 83.76779937744141 71.63987731933594 93.43817901611328 68.06855773925781 102.7425384521484 C 66.39726257324219 107.0967636108398 64.34217834472656 111.3409423828125 61.96044158935547 115.3571395874023 C 59.64421844482422 119.2628173828125 57.00875854492188 122.9712219238281 54.12730026245117 126.3793029785156 C 51.29413986206055 129.7302398681641 48.21895980834961 132.7963256835938 44.98715972900391 135.4923858642578 C 41.76911926269531 138.1769409179688 38.39583969116211 140.4947204589844 34.96097946166992 142.38134765625 C 31.49641990661621 144.2842559814453 27.96750068664551 145.7492065429688 24.47224044799805 146.7354736328125 C 20.90501976013184 147.7420654296875 17.36238098144531 148.25244140625 13.94268035888672 148.25244140625 Z" stroke="none"/>
      <path d="M 51 1 C 43.88150024414062 1 36.30020141601562 2.201934814453125 29.07569885253906 4.475875854492188 C 25.28302001953125 5.669647216796875 21.59930038452148 7.154342651367188 18.12686157226562 8.888763427734375 C 14.48936080932617 10.70562744140625 11.06266021728516 12.80784606933594 7.941959381103516 15.13699340820312 C -2.153358459472656 22.67176055908203 -14.18743896484375 36.45390319824219 -14.18743896484375 59.322998046875 C -14.18743896484375 68.86399841308594 -14.14189910888672 79.92738342285156 -13.59809875488281 90.48655700683594 C -13.00296020507812 102.0427551269531 -11.89398193359375 111.4188232421875 -10.20777893066406 119.1505432128906 C -9.246040344238281 123.5605163574219 -8.073997497558594 127.5000228881836 -6.724220275878906 130.859619140625 C -5.285858154296875 134.4397583007812 -3.596580505371094 137.485107421875 -1.703323364257812 139.9110565185547 C 0.2827186584472656 142.4558868408203 2.559398651123047 144.4028167724609 5.063480377197266 145.6977844238281 C 7.699840545654297 147.0611572265625 10.68722152709961 147.75244140625 13.94268035888672 147.75244140625 C 17.31645965576172 147.75244140625 20.81343841552734 147.2483825683594 24.33644104003906 146.2542877197266 C 27.79526138305664 145.2782745361328 31.28887939453125 143.8277740478516 34.72026062011719 141.9430999755859 C 38.12697982788086 140.0719451904297 41.4734992980957 137.7724456787109 44.66686248779297 135.1084442138672 C 47.87648010253906 132.4308776855469 50.93098068237305 129.3853607177734 53.74547958374023 126.0564804077148 C 56.60906219482422 122.669563293457 59.22827911376953 118.9839630126953 61.53036117553711 115.1020965576172 C 63.89780044555664 111.1100158691406 65.94052124023438 106.8914031982422 67.60176086425781 102.563362121582 C 71.15103912353516 93.31640625 72.95068359375 83.706298828125 72.95068359375 74 C 72.95068359375 68.24749755859375 73.05339813232422 62.67230224609375 73.15274047851562 57.2806396484375 C 73.36544036865234 45.73725891113281 73.56632232666016 34.83408355712891 72.61409759521484 26.00689697265625 C 71.57933807373047 16.41477966308594 69.29080200195312 10.10702514648438 65.41191864013672 6.156021118164062 C 62.00577926635742 2.686538696289062 57.29159927368164 1 51 1 M 51 0 C 79.16651916503906 0 73.95068359375 33.13094329833984 73.95068359375 74 C 73.95068359375 114.8690643310547 42.10919952392578 148.75244140625 13.94268035888672 148.75244140625 C -14.22383880615234 148.75244140625 -15.18743896484375 100.1920623779297 -15.18743896484375 59.322998046875 C -15.18743896484375 18.45393371582031 22.83348083496094 0 51 0 Z" stroke="none" fill="#707070"/>
    </g>
  </g>
</svg>
