<svg xmlns="http://www.w3.org/2000/svg" width="300" height="375" viewBox="0 0 300 375">
  <g id="패스_5" data-name="패스 5" transform="translate(-0.976)" fill="#fff">
    <path d="M 149.0617828369141 374.5 C 128.1246948242188 374.5 108.6355895996094 371.4700927734375 91.13578796386719 365.4944458007812 C 73.05313873291016 359.3197937011719 57.29319000244141 350.05712890625 44.2936897277832 337.9638366699219 C 30.66364097595215 325.2838745117188 20.11164093017578 309.5147399902344 12.93089008331299 291.0943298339844 C 9.197390556335449 281.5170288085938 6.338740348815918 271.0987854003906 4.434290409088135 260.1289367675781 C 2.471590518951416 248.82373046875 1.4764404296875 236.6664276123047 1.4764404296875 223.9947814941406 C 1.4764404296875 211.2559356689453 2.472290515899658 198.0391845703125 4.436290264129639 184.7117919921875 C 6.364090442657471 171.6301422119141 9.22704029083252 158.4194793701172 12.9456901550293 145.44677734375 C 16.64299011230469 132.5484313964844 21.18539047241211 119.8870315551758 26.44664001464844 107.8143310546875 C 31.7490406036377 95.64728546142578 37.78208923339844 84.07813262939453 44.37818908691406 73.42813110351562 C 51.10998916625977 62.55913543701172 58.4435920715332 52.62473297119141 66.17539215087891 43.90088653564453 C 74.148193359375 34.90508651733398 82.59059143066406 27.14678382873535 91.26814270019531 20.84148406982422 C 100.2838897705078 14.29038429260254 109.6422424316406 9.245834350585938 119.0831909179688 5.847934722900391 C 128.9428405761719 2.299284696578979 139.0291442871094 0.4999847412109375 149.0617828369141 0.4999847412109375 C 159.0973358154297 0.4999847412109375 169.2395477294922 2.299484729766846 179.2065887451172 5.848484516143799 C 188.7559967041016 9.248785018920898 198.2610473632812 14.2940845489502 207.4576873779297 20.84423446655273 C 216.3200378417969 27.15628433227539 224.9690399169922 34.91538619995117 233.1645355224609 43.90608596801758 C 241.1282958984375 52.64248657226562 248.6982879638672 62.57743453979492 255.6643371582031 73.43488311767578 C 262.5092468261719 84.10353851318359 268.7784423828125 95.67283630371094 274.2977905273438 107.8213882446289 C 279.7930908203125 119.9169845581055 284.5413513183594 132.5780792236328 288.4107055664062 145.4529418945312 C 292.3164367675781 158.4489288330078 295.324951171875 171.6588287353516 297.3526306152344 184.7155914306641 C 299.4254455566406 198.0630340576172 300.4764404296875 211.2784881591797 300.4764404296875 223.9947814941406 C 300.4764404296875 236.6468811035156 299.4261779785156 248.8026885986328 297.3548889160156 260.1244812011719 C 295.3511047363281 271.0771789550781 292.3471984863281 281.4944458007812 288.4266967773438 291.0867919921875 C 280.9170837402344 309.460693359375 269.9234313964844 325.2304382324219 255.7510833740234 337.9578857421875 C 242.3050384521484 350.0331420898438 226.1009979248047 359.2974243164062 207.5890350341797 365.4934997558594 C 189.7337341308594 371.4697265625 170.0422973632812 374.5 149.0617828369141 374.5 Z" stroke="none"/>
    <path d="M 149.0617828369141 0.999969482421875 C 139.0869903564453 0.999969482421875 129.0576934814453 2.789337158203125 119.2524871826172 6.318389892578125 C 109.8559875488281 9.700286865234375 100.5395965576172 14.72262573242188 91.56204223632812 21.2459716796875 C 82.91378784179688 27.52999877929688 74.49839782714844 35.2637939453125 66.54959106445312 44.23248291015625 C 58.83663940429688 52.93511962890625 51.52009582519531 62.84652709960938 44.80328369140625 73.69143676757812 C 38.2197265625 84.32113647460938 32.1978759765625 95.86892700195312 26.905029296875 108.0140991210938 C 21.65249633789062 120.0667419433594 17.11758422851562 132.7072906494141 13.42630004882812 145.5845794677734 C 9.713775634765625 158.5360412597656 6.85552978515625 171.7248382568359 4.930938720703125 184.7846832275391 C 2.970489501953125 198.0880279541016 1.9764404296875 211.2802276611328 1.9764404296875 223.9947814941406 C 1.9764404296875 236.6378784179688 2.969146728515625 248.7663879394531 4.9268798828125 260.0433959960938 C 6.82568359375 270.98046875 9.67535400390625 281.3664245605469 13.396728515625 290.9127197265625 C 20.5499267578125 309.262451171875 31.05975341796875 324.9695434570312 44.63424682617188 337.5977478027344 C 57.58193969726562 349.6428833007812 73.28169250488281 358.8694763183594 91.29734802246094 365.0212707519531 C 108.7450408935547 370.9790954589844 128.1797943115234 374 149.0617828369141 374 C 169.9882354736328 374 189.6262817382812 370.9784240722656 207.4303436279297 365.0193481445312 C 225.8770904541016 358.8450927734375 242.0221405029297 349.6151428222656 255.4169921875 337.5858764648438 C 269.5327453613281 324.9093017578125 280.4830932617188 309.2010498046875 287.9638977050781 290.8975830078125 C 291.871337890625 281.3371887207031 294.8654479980469 270.9532775878906 296.863037109375 260.0344848632812 C 298.928955078125 248.7422790527344 299.9764404296875 236.6167907714844 299.9764404296875 223.9947814941406 C 299.9764404296875 211.3040771484375 298.9274291992188 198.1144866943359 296.8585510253906 184.7923278808594 C 294.8343811035156 171.7581787109375 291.8310546875 158.5709381103516 287.9318542480469 145.5968322753906 C 284.0689392089844 132.7433776855469 279.3286437988281 120.1034851074219 273.8425903320312 108.0282287597656 C 268.3330993652344 95.90142822265625 262.0755004882812 84.3533935546875 255.2434997558594 73.70489501953125 C 248.2926330566406 62.87103271484375 240.7398986816406 52.95858764648438 232.7950439453125 44.24288940429688 C 224.6233825683594 35.2784423828125 216.0010986328125 27.54299926757812 207.1676330566406 21.25149536132812 C 198.0085906982422 14.7281494140625 188.5447387695312 9.70428466796875 179.0388793945312 6.319549560546875 C 169.1257934570312 2.78973388671875 159.0400390625 0.999969482421875 149.0617828369141 0.999969482421875 M 149.0617828369141 -3.0517578125e-05 C 231.9045867919922 -3.0517578125e-05 300.9764404296875 120.4414367675781 300.9764404296875 223.9947814941406 C 300.9764404296875 327.5481872558594 231.9045867919922 375 149.0617828369141 375 C 66.21914672851562 375 0.9764404296875 327.5481872558594 0.9764404296875 223.9947814941406 C 0.9764404296875 120.4414367675781 66.21914672851562 -3.0517578125e-05 149.0617828369141 -3.0517578125e-05 Z" stroke="none" fill="#707070"/>
  </g>
</svg>
